<svg width="286" height="100" viewBox="0 0 286 100" fill="none" xmlns="http://www.w3.org/2000/svg">
<path fill-rule="evenodd" clip-rule="evenodd" d="M50 100C77.6142 100 100 77.6142 100 50C100 22.3858 77.6142 0 50 0C22.3858 0 0 22.3858 0 50C0 77.6142 22.3858 100 50 100ZM50 90.2778C72.2448 90.2778 90.2778 72.2448 90.2778 50C90.2778 27.7552 72.2448 9.72222 50 9.72222C27.7552 9.72222 9.72222 27.7552 9.72222 50C9.72222 72.2448 27.7552 90.2778 50 90.2778Z" fill="url(#paint0_linear_14_2)"/>
<path d="M51.2614 72H35.7926V28.3636H51.3892C55.7784 28.3636 59.5568 29.2372 62.7244 30.9844C65.892 32.7173 68.3281 35.2102 70.0327 38.4631C71.7514 41.7159 72.6108 45.608 72.6108 50.1392C72.6108 54.6847 71.7514 58.5909 70.0327 61.858C68.3281 65.125 65.8778 67.6321 62.6818 69.3793C59.5 71.1264 55.6932 72 51.2614 72ZM45.0185 64.0952H50.8778C53.6051 64.0952 55.8991 63.6122 57.7599 62.6463C59.6349 61.6662 61.0412 60.1534 61.9787 58.108C62.9304 56.0483 63.4062 53.392 63.4062 50.1392C63.4062 46.9148 62.9304 44.2798 61.9787 42.2344C61.0412 40.1889 59.642 38.6832 57.7812 37.7173C55.9205 36.7514 53.6264 36.2685 50.8991 36.2685H45.0185V64.0952Z" fill="url(#paint1_linear_14_2)"/>
<path d="M127.261 72H111.793V28.3636H127.389C131.778 28.3636 135.557 29.2372 138.724 30.9844C141.892 32.7173 144.328 35.2102 146.033 38.4631C147.751 41.7159 148.611 45.608 148.611 50.1392C148.611 54.6847 147.751 58.5909 146.033 61.858C144.328 65.125 141.878 67.6321 138.682 69.3793C135.5 71.1264 131.693 72 127.261 72ZM121.018 64.0952H126.878C129.605 64.0952 131.899 63.6122 133.76 62.6463C135.635 61.6662 137.041 60.1534 137.979 58.108C138.93 56.0483 139.406 53.392 139.406 50.1392C139.406 46.9148 138.93 44.2798 137.979 42.2344C137.041 40.1889 135.642 38.6832 133.781 37.7173C131.92 36.7514 129.626 36.2685 126.899 36.2685H121.018V64.0952ZM195.544 50.1818C195.544 54.9403 194.642 58.9886 192.838 62.3267C191.049 65.6648 188.605 68.2145 185.509 69.9759C182.426 71.723 178.961 72.5966 175.111 72.5966C171.233 72.5966 167.753 71.7159 164.671 69.9545C161.588 68.1932 159.152 65.6435 157.363 62.3054C155.573 58.9673 154.678 54.9261 154.678 50.1818C154.678 45.4233 155.573 41.375 157.363 38.0369C159.152 34.6989 161.588 32.1562 164.671 30.4091C167.753 28.6477 171.233 27.767 175.111 27.767C178.961 27.767 182.426 28.6477 185.509 30.4091C188.605 32.1562 191.049 34.6989 192.838 38.0369C194.642 41.375 195.544 45.4233 195.544 50.1818ZM186.191 50.1818C186.191 47.0994 185.729 44.5 184.806 42.3835C183.897 40.267 182.611 38.6619 180.949 37.5682C179.287 36.4744 177.341 35.9276 175.111 35.9276C172.881 35.9276 170.935 36.4744 169.273 37.5682C167.611 38.6619 166.319 40.267 165.395 42.3835C164.486 44.5 164.032 47.0994 164.032 50.1818C164.032 53.2642 164.486 55.8636 165.395 57.9801C166.319 60.0966 167.611 61.7017 169.273 62.7955C170.935 63.8892 172.881 64.4361 175.111 64.4361C177.341 64.4361 179.287 63.8892 180.949 62.7955C182.611 61.7017 183.897 60.0966 184.806 57.9801C185.729 55.8636 186.191 53.2642 186.191 50.1818ZM242.478 50.1818C242.478 54.9403 241.576 58.9886 239.772 62.3267C237.982 65.6648 235.539 68.2145 232.442 69.9759C229.36 71.723 225.894 72.5966 222.045 72.5966C218.167 72.5966 214.687 71.7159 211.604 69.9545C208.522 68.1932 206.086 65.6435 204.296 62.3054C202.506 58.9673 201.612 54.9261 201.612 50.1818C201.612 45.4233 202.506 41.375 204.296 38.0369C206.086 34.6989 208.522 32.1562 211.604 30.4091C214.687 28.6477 218.167 27.767 222.045 27.767C225.894 27.767 229.36 28.6477 232.442 30.4091C235.539 32.1562 237.982 34.6989 239.772 38.0369C241.576 41.375 242.478 45.4233 242.478 50.1818ZM233.124 50.1818C233.124 47.0994 232.663 44.5 231.739 42.3835C230.83 40.267 229.545 38.6619 227.883 37.5682C226.221 36.4744 224.275 35.9276 222.045 35.9276C219.815 35.9276 217.869 36.4744 216.207 37.5682C214.545 38.6619 213.252 40.267 212.329 42.3835C211.42 44.5 210.965 47.0994 210.965 50.1818C210.965 53.2642 211.42 55.8636 212.329 57.9801C213.252 60.0966 214.545 61.7017 216.207 62.7955C217.869 63.8892 219.815 64.4361 222.045 64.4361C224.275 64.4361 226.221 63.8892 227.883 62.7955C229.545 61.7017 230.83 60.0966 231.739 57.9801C232.663 55.8636 233.124 53.2642 233.124 50.1818ZM249.312 72V28.3636H266.784C269.994 28.3636 272.672 28.8395 274.816 29.7912C276.961 30.7429 278.574 32.0639 279.653 33.7543C280.733 35.4304 281.272 37.3622 281.272 39.5497C281.272 41.2543 280.931 42.7528 280.25 44.0455C279.568 45.3239 278.63 46.375 277.437 47.1989C276.258 48.0085 274.909 48.5838 273.389 48.9247V49.3509C275.051 49.4219 276.606 49.8906 278.055 50.7571C279.518 51.6236 280.704 52.8381 281.613 54.4006C282.522 55.9489 282.977 57.7955 282.977 59.9403C282.977 62.2557 282.402 64.3224 281.251 66.1406C280.115 67.9446 278.431 69.3722 276.201 70.4233C273.971 71.4744 271.223 72 267.956 72H249.312ZM258.538 64.4574H266.059C268.63 64.4574 270.505 63.9673 271.684 62.9872C272.863 61.9929 273.453 60.6719 273.453 59.0241C273.453 57.8168 273.162 56.7514 272.579 55.8281C271.997 54.9048 271.166 54.1804 270.086 53.6548C269.021 53.1293 267.75 52.8665 266.272 52.8665H258.538V64.4574ZM258.538 46.6236H265.377C266.642 46.6236 267.764 46.4034 268.744 45.9631C269.738 45.5085 270.52 44.8693 271.088 44.0455C271.67 43.2216 271.961 42.2344 271.961 41.0838C271.961 39.5071 271.4 38.2358 270.278 37.2699C269.17 36.304 267.593 35.821 265.548 35.821H258.538V46.6236Z" fill="url(#paint2_linear_14_2)"/>
<defs>
<linearGradient id="paint0_linear_14_2" x1="50" y1="-5.23386e-07" x2="111.285" y2="71.7014" gradientUnits="userSpaceOnUse">
<stop offset="0.0572917" stop-color="#BEF244"/>
<stop offset="0.344884" stop-color="#F58484"/>
<stop offset="0.651042" stop-color="#E3A96F"/>
<stop offset="1" stop-color="#D0CD59"/>
</linearGradient>
<linearGradient id="paint1_linear_14_2" x1="54" y1="14" x2="83" y2="39" gradientUnits="userSpaceOnUse">
<stop stop-color="#BEF244"/>
<stop offset="0.333333" stop-color="#F58484"/>
<stop offset="0.666667" stop-color="#E3A96F"/>
<stop offset="1" stop-color="#D0CD59"/>
</linearGradient>
<linearGradient id="paint2_linear_14_2" x1="117" y1="14" x2="275" y2="14" gradientUnits="userSpaceOnUse">
<stop stop-color="#BEF244"/>
<stop offset="0.333333" stop-color="#F58484"/>
<stop offset="0.666667" stop-color="#E3A96F"/>
<stop offset="1" stop-color="#D0CD59"/>
</linearGradient>
</defs>
</svg>
