<svg width="100" height="100" viewBox="0 0 100 100" fill="none" xmlns="http://www.w3.org/2000/svg">
<path fill-rule="evenodd" clip-rule="evenodd" d="M50 100C77.6142 100 100 77.6142 100 50C100 22.3858 77.6142 0 50 0C22.3858 0 0 22.3858 0 50C0 77.6142 22.3858 100 50 100ZM50 90.2778C72.2448 90.2778 90.2778 72.2448 90.2778 50C90.2778 27.7552 72.2448 9.72222 50 9.72222C27.7552 9.72222 9.72222 27.7552 9.72222 50C9.72222 72.2448 27.7552 90.2778 50 90.2778Z" fill="#CDA45E"/>
<path d="M35.7926 72V28.3636H53.0085C56.304 28.3636 59.1165 28.9531 61.446 30.1321C63.7898 31.2969 65.5724 32.9517 66.794 35.0966C68.0298 37.2273 68.6477 39.7344 68.6477 42.6179C68.6477 45.5156 68.0227 48.0085 66.7727 50.0966C65.5227 52.1705 63.7116 53.7614 61.3395 54.8693C58.9815 55.9773 56.1264 56.5312 52.7741 56.5312H41.2472V49.1165H51.2827C53.044 49.1165 54.5071 48.875 55.6719 48.392C56.8366 47.9091 57.7031 47.1847 58.2713 46.2188C58.8537 45.2528 59.1449 44.0526 59.1449 42.6179C59.1449 41.169 58.8537 39.9474 58.2713 38.9531C57.7031 37.9588 56.8295 37.206 55.6506 36.6946C54.4858 36.169 53.0156 35.9062 51.2401 35.9062H45.0185V72H35.7926ZM59.358 52.142L70.2031 72H60.0185L49.4077 52.142H59.358Z" fill="white"/>
</svg>
